<svg xmlns="http://www.w3.org/2000/svg" xmlns:xlink="http://www.w3.org/1999/xlink" viewBox="0 0 471.94 387">
  <defs>
    <style>
      .cls-1, .cls-27, .cls-28, .cls-29, .cls-30 {
        fill: none;
        stroke: #1d1d1b;
      }

      .cls-1, .cls-17, .cls-27, .cls-28, .cls-29, .cls-3, .cls-30, .cls-6 {
        stroke-miterlimit: 10;
      }

      .cls-1, .cls-6 {
        stroke-width: 2px;
      }

      .cls-1 {
        stroke-dasharray: 4 4;
      }

      .cls-2 {
        fill: #1d1d1b;
      }

      .cls-3, .cls-6 {
        fill: #303031;
      }

      .cls-3 {
        stroke: #303031;
      }

      .cls-4 {
        fill: #eaeaea;
      }

      .cls-17, .cls-5 {
        fill: #fff;
      }

      .cls-6 {
        stroke: #303131;
      }

      .cls-7 {
        fill: url(#linear-gradient);
      }

      .cls-8 {
        fill: url(#linear-gradient-2);
      }

      .cls-9 {
        fill: url(#linear-gradient-3);
      }

      .cls-10 {
        fill: url(#linear-gradient-4);
      }

      .cls-11 {
        fill: url(#linear-gradient-5);
      }

      .cls-12 {
        fill: url(#linear-gradient-6);
      }

      .cls-13 {
        fill: url(#linear-gradient-7);
      }

      .cls-14 {
        fill: url(#linear-gradient-8);
      }

      .cls-15 {
        fill: gray;
      }

      .cls-16 {
        fill: #e0e0e0;
      }

      .cls-17 {
        stroke: #404040;
      }

      .cls-18 {
        fill: #f3e525;
      }

      .cls-19 {
        fill: #468432;
      }

      .cls-20 {
        fill: #e62f2d;
      }

      .cls-21 {
        fill: #efdf9a;
      }

      .cls-22 {
        fill: #5d4e9b;
      }

      .cls-23 {
        fill: #7f3a1f;
      }

      .cls-24 {
        fill: #e37c37;
      }

      .cls-25 {
        fill: #404040;
      }

      .cls-26 {
        fill: #dfdfdf;
      }

      .cls-27, .cls-28, .cls-29, .cls-30 {
        stroke-width: 0.5px;
      }

      .cls-28 {
        stroke-dasharray: 3.23 3.23;
      }

      .cls-29 {
        stroke-dasharray: 3.62 3.62;
      }

      .cls-30 {
        stroke-dasharray: 3.23 3.23;
      }
    </style>
    <linearGradient id="linear-gradient" x1="407.81" y1="97.06" x2="447.49" y2="97.06" gradientUnits="userSpaceOnUse">
      <stop offset="0" stop-color="#706f6f"/>
      <stop offset="1" stop-color="#009fe3"/>
    </linearGradient>
    <linearGradient id="linear-gradient-2" x1="380.14" y1="97.06" x2="407.81" y2="97.06" gradientUnits="userSpaceOnUse">
      <stop offset="0" stop-color="#575756"/>
      <stop offset="1" stop-color="#3c3c3b"/>
    </linearGradient>
    <linearGradient id="linear-gradient-3" x1="407.81" y1="107.89" x2="447.49" y2="107.89" xlink:href="#linear-gradient"/>
    <linearGradient id="linear-gradient-4" x1="380.14" y1="107.89" x2="407.81" y2="107.89" xlink:href="#linear-gradient-2"/>
    <linearGradient id="linear-gradient-5" x1="407.81" y1="117.89" x2="447.49" y2="117.89" xlink:href="#linear-gradient"/>
    <linearGradient id="linear-gradient-6" x1="380.14" y1="117.89" x2="407.81" y2="117.89" xlink:href="#linear-gradient-2"/>
    <linearGradient id="linear-gradient-7" x1="380.14" y1="80.89" x2="447.49" y2="80.89" xlink:href="#linear-gradient-2"/>
    <linearGradient id="linear-gradient-8" x1="380.14" y1="211.5" x2="447.49" y2="211.5" xlink:href="#linear-gradient-2"/>
  </defs>
  <g id="Layer_10" data-name="Layer 10">
    <g>
      <path class="cls-1" d="M263.72,357.51q-6.37,0-12.65-.39c-74.68-4.63-136.77-50-158.53-111.3" transform="translate(-16.02 -7.39)"/>
      <polygon class="cls-2" points="83.86 238.19 73.49 228.85 70.58 242.5 83.86 238.19"/>
    </g>
    <g>
      <path class="cls-1" d="M231,40.21a202.45,202.45,0,0,1,32.75-2.65c42.11,0,80.83,12.92,111.44,34.56" transform="translate(-16.02 -7.39)"/>
      <polygon class="cls-2" points="353.31 69.19 367.18 70.75 361.6 57.96 353.31 69.19"/>
    </g>
  </g>
  <g id="laptopskjerm">
    <path class="cls-3" d="M43.27,215.42A4.38,4.38,0,0,1,39,211v-56.3a4.38,4.38,0,0,1,4.31-4.44h79.25a4.38,4.38,0,0,1,4.31,4.44V211a4.38,4.38,0,0,1-4.31,4.45Z" transform="translate(-16.02 -7.39)"/>
    <path class="cls-4" d="M124,211a1.56,1.56,0,0,1-1.48,1.62H43.27A1.56,1.56,0,0,1,41.79,211v-56.3a1.55,1.55,0,0,1,1.48-1.61h79.25a1.55,1.55,0,0,1,1.48,1.61Z" transform="translate(-16.02 -7.39)"/>
  </g>
  <g id="laptopbunn">
    <path class="cls-3" d="M135.34,221.06a2.09,2.09,0,0,1-2.16,2H32.61a2.09,2.09,0,0,1-2.16-2v-2a2.08,2.08,0,0,1,2.16-2H133.18a2.08,2.08,0,0,1,2.16,2Z" transform="translate(-16.02 -7.39)"/>
  </g>
  <g id="laptoplys">
    <path class="cls-5" d="M131.16,220.07a1,1,0,1,1-1-1A1,1,0,0,1,131.16,220.07Z" transform="translate(-16.02 -7.39)"/>
    <path class="cls-5" d="M127.82,220.07a1,1,0,1,1-1-1A1,1,0,0,1,127.82,220.07Z" transform="translate(-16.02 -7.39)"/>
    <path class="cls-5" d="M116.5,220.07a1,1,0,0,0,1,1h5.76a1,1,0,0,0,1-1h0a1,1,0,0,0-1-1h-5.76a1,1,0,0,0-1,1Z" transform="translate(-16.02 -7.39)"/>
  </g>
  <g id="server">
    <path class="cls-6" d="M463.51,220.48a2.94,2.94,0,0,1-3,2.89H399.16a2.94,2.94,0,0,1-3-2.89V85.26a2.94,2.94,0,0,1,3-2.89h61.35a2.94,2.94,0,0,1,3,2.89Z" transform="translate(-16.02 -7.39)"/>
    <rect class="cls-7" x="407.81" y="95.64" width="39.68" height="2.83"/>
    <rect class="cls-8" x="380.14" y="95.64" width="27.67" height="2.83"/>
    <rect class="cls-9" x="407.81" y="106.48" width="39.68" height="2.83"/>
    <rect class="cls-10" x="380.14" y="106.48" width="27.67" height="2.83"/>
    <rect class="cls-11" x="407.81" y="116.48" width="39.68" height="2.83"/>
    <rect class="cls-12" x="380.14" y="116.48" width="27.67" height="2.83"/>
    <rect class="cls-13" x="380.14" y="79.48" width="67.36" height="2.83"/>
    <rect class="cls-14" x="380.14" y="210.08" width="67.36" height="2.83"/>
    <path class="cls-15" d="M424.17,197.53c0,3.13.65,5.67,1.45,5.67h8.43c.8,0,1.45-2.54,1.45-5.67h0c0-3.13-.65-5.67-1.45-5.67h-8.43c-.8,0-1.45,2.54-1.45,5.67Z" transform="translate(-16.02 -7.39)"/>
  </g>
  <g id="boble_laptop" data-name="boble laptop">
    <rect class="cls-16" x="22.94" width="186.04" height="98.47" rx="36"/>
    <path class="cls-16" d="M135.82,159.41h0c4.76-31.61-8.51-58.3-26.73-71.79l53.46-27.24C171.67,100.54,158.4,137.35,135.82,159.41Z" transform="translate(-16.02 -7.39)"/>
    <path class="cls-17" d="M158.25,84.78a1.55,1.55,0,0,1-1.48,1.61H77.52A1.55,1.55,0,0,1,76,84.78V28.48a1.55,1.55,0,0,1,1.48-1.61h79.25a1.55,1.55,0,0,1,1.48,1.61Z" transform="translate(-16.02 -7.39)"/>
    <path class="cls-18" d="M88.59,32.37c-2.28.06-4.22,1.86-3.39,4.25a2.83,2.83,0,0,0,2,1.94,3,3,0,0,0,3-1.6,1.52,1.52,0,0,0-.89-2.21h0a1.5,1.5,0,0,0-1.89,1.44,2.67,2.67,0,0,0,.39,1.29,1.53,1.53,0,0,0,2.36.31l0,0L88.33,38a2.1,2.1,0,0,0,1.11.32,1.52,1.52,0,0,0,1.45-1.9.43.43,0,0,1,0-.11,1.52,1.52,0,0,0-2.9,0,3.61,3.61,0,0,0,.89,4c1.43,1.3,3.55-.82,2.12-2.12-.38-.35-.27-.53-.11-1H88l0,.11,1.44-1.9.4.09a1.53,1.53,0,0,0-1.81.24h0l2.35.31c-.1-.17,0,.16,0,.22l-1.9,1.45,0,0-.9-2.21c-.28.45-.18.13.31.21-.29,0,.31.26.1,0,.27.27-.1-.33,0,0L88,35.44q0,.27,0,0c0,.15,0,.11,0,0-.06.11,0,0,.12,0a2.34,2.34,0,0,0,.43,0c1.93-.06,1.93-3.06,0-3Z" transform="translate(-16.02 -7.39)"/>
    <path class="cls-18" d="M84.31,37.43c2.12,6.27,10.36,1.35,10.11-3.73-.1-1.93-3.1-1.94-3,0,.08,1.61-3.36,5.48-4.22,2.93-.62-1.82-3.52-1-2.89.8Z" transform="translate(-16.02 -7.39)"/>
    <path class="cls-18" d="M82.77,43.17a8,8,0,0,1-.12,6.28c-.26.58.6,1.09.87.5a9,9,0,0,0,.21-7.05c-.23-.6-1.19-.34-1,.27Z" transform="translate(-16.02 -7.39)"/>
    <path class="cls-18" d="M89.49,42.45a36,36,0,0,0,5.08,7.77c.41.49,1.12-.22.7-.71A35.57,35.57,0,0,1,90.35,42c-.28-.58-1.14-.08-.86.5Z" transform="translate(-16.02 -7.39)"/>
    <path class="cls-18" d="M94,41.8a43.54,43.54,0,0,0,14.62,7.05.5.5,0,0,0,.26-1,42.62,42.62,0,0,1-14.38-7c-.51-.38-1,.49-.5.87Z" transform="translate(-16.02 -7.39)"/>
    <path class="cls-18" d="M94.79,35.85a14.63,14.63,0,0,0,3.8.18.5.5,0,0,0,0-1,13.51,13.51,0,0,1-3.54-.15.5.5,0,0,0-.26,1Z" transform="translate(-16.02 -7.39)"/>
    <path class="cls-18" d="M87.25,30.53a14.48,14.48,0,0,0-.18-2.63c-.12-.63-1.08-.36-1,.27a12.43,12.43,0,0,1,.15,2.36.5.5,0,0,0,1,0Z" transform="translate(-16.02 -7.39)"/>
    <path class="cls-18" d="M82.61,31.35a7.62,7.62,0,0,0-2.44-2.08c-.57-.3-1.08.57-.5.86a7.21,7.21,0,0,1,2.23,1.92c.4.5,1.11-.21.71-.7Z" transform="translate(-16.02 -7.39)"/>
    <path class="cls-19" d="M131.92,53.37c0,.72-.13,1.44-.17,2.16l1.71-.7A19.54,19.54,0,0,1,131,51.69a1,1,0,0,0-1.73,1,12.21,12.21,0,0,1,1.24,3.6,1,1,0,0,0,1.92,0c.27-1.53,1.28-6.18,3.18-3.26a1,1,0,0,0,1.82-.77v0l-1.82.24c1.25,2.21,1.88,4.71,3.33,6.83.44.65,1.65.68,1.83-.24.25-1.34.19-2.74.31-4.1a11.29,11.29,0,0,1,.18-1.3c.2-1,0-.16-.07-.28,1.19,1.2,1.18,3.13,1.2,4.7,0,1.19-.07,2.37-.09,3.55,0,1.47,0,2.2-1.63,2.24-3.5.07-7-.07-10.53-.07.23.56.47,1.13.7,1.7,2.12-2.73,5.83-3.38,8.63-5.17a1,1,0,0,0,.36-1.37,8.51,8.51,0,0,0-3-2.2c-1-.51-2.63-1.74-3.76-1.43s-1.87,2.12-2.37,3.08a14,14,0,0,0-1.87,5.05c-.13,1.29,1.87,1.27,2,0,0-.12,2.5-6.25,2.71-6.07,1.3,1.09,3.51,1.13,4.6,2.58.11-.46.23-.91.35-1.37-3,1.9-6.79,2.59-9,5.49a1,1,0,0,0,.71,1.71c3,0,6-.07,8.93,0a7.6,7.6,0,0,0,3.93-.45c1.08-.57,1.25-2,1.31-3.08a34.51,34.51,0,0,0,0-6.43c-.22-1.58-1.94-6.28-4.26-4.2-1.6,1.43-.81,5-1.17,6.87l1.83-.24c-1.45-2.11-2.08-4.62-3.34-6.83a1,1,0,0,0-1.82.24,1.72,1.72,0,0,0,0,1l1.82-.77c-.76-1.18-2.27-3.05-3.91-2-1.92,1.19-2.55,3.7-2.91,5.78h1.92A13.4,13.4,0,0,0,131,51.69l-1.73,1A22,22,0,0,0,132,56.24a1,1,0,0,0,1.71-.71c0-.72.12-1.44.17-2.16.08-1.29-1.92-1.28-2,0Z" transform="translate(-16.02 -7.39)"/>
    <path class="cls-19" d="M133.59,56.37A7,7,0,0,1,130.88,62l1.71.71c.17-3.44,2.14-6.5,3.13-9.74l-1.47.6c2.45,1.32,7.42,5.1,6.37,8.37h1.93a23.93,23.93,0,0,1-.13-4.4l-1.71.71c2.16,1.71,1.28,5.09,3.33,7,1,.88,2.37-.53,1.42-1.41-2-1.85-1-5.18-3.33-7a1,1,0,0,0-1.71.7,27,27,0,0,0,.2,4.93c.18,1,1.65.87,1.93,0,1.39-4.31-4-8.85-7.29-10.62a1,1,0,0,0-1.47.59c-1,3.45-3,6.6-3.2,10.27-.05,1,1.08,1.19,1.7.71a8.81,8.81,0,0,0,3.3-7c-.1-1.28-2.1-1.29-2,0Z" transform="translate(-16.02 -7.39)"/>
    <path class="cls-19" d="M141.59,63.53a5.28,5.28,0,0,0-.35-1.89l-1.83.77c.49.65,1,1.3,1.49,2a1,1,0,0,0,1.71-.71,9.17,9.17,0,0,0-2-5,1,1,0,0,0-1.67.44c-.25,1.53-.11,3.16-.74,4.59l1.87.51c-.31-2.46.49-5.45-1.43-7.42a9.85,9.85,0,0,0-5.89-2.62c-4.34-.29-2.68,8.33-3.88,10.53-.62,1.14,1.11,2.15,1.73,1,1.36-2.49.73-5.61,1.32-8.31.48-2.26,3-.65,4.3.08,2.48,1.43,1.55,4.32,1.85,6.73.1.85,1.41,1.53,1.86.5.74-1.67.64-3.29.93-5.07l-1.67.44a6.55,6.55,0,0,1,1.4,3.58l1.7-.7c-.4-.52-.79-1-1.17-1.55-.63-.84-2.22-.39-1.83.77.09.45.18.91.28,1.36.07,1.28,2.07,1.29,2,0Z" transform="translate(-16.02 -7.39)"/>
    <path class="cls-18" d="M77.67,35.46A4.42,4.42,0,0,1,79.42,35a.5.5,0,0,0,0-1,5.47,5.47,0,0,0-2.25.57c-.58.28-.08,1.14.5.86Z" transform="translate(-16.02 -7.39)"/>
    <path class="cls-18" d="M78,43a1.94,1.94,0,0,1,.86-.77c.6-.22.34-1.19-.26-1a3,3,0,0,0-1.47,1.23c-.36.53.51,1,.87.5Z" transform="translate(-16.02 -7.39)"/>
    <path class="cls-18" d="M93.94,32.39c1.64-1.7,4.35-2.47,6.61-2.88.64-.11.37-1.07-.26-1-2.43.44-5.3,1.31-7.06,3.13-.45.46.26,1.17.71.71Z" transform="translate(-16.02 -7.39)"/>
    <path class="cls-20" d="M105.62,63.13a14.94,14.94,0,0,1-.41,7.51c-.36,1.16-.32,2.66,1,3.18,2,.8,5.26-.19,7.32-.61,4.66-1-3.8-10.27-5.06-11.88-.66-.85-1.88.08-1.67,1,.48,2.06,2.6,8.11.29,9.54l1.47.59c-.47-1.41-1.12-4.33-.43-5.73.4-.81,1.7,1.65,1.86,2a10.09,10.09,0,0,1,1.11,3.22c.33-.34.66-.67,1-1-1.09-.14-1.64-1-2.14-1.84-.68-1.1-2.41-.09-1.73,1a5.14,5.14,0,0,0,3.87,2.83,1,1,0,0,0,1-1c-.3-2.37-1.89-7.41-4.9-7.43-3.46,0-2.17,6.73-1.57,8.52a1,1,0,0,0,1.47.6c3.57-2.2,1.37-8.63.63-11.79l-1.68,1c1.25,1.59,2.51,3.15,3.68,4.8a25.33,25.33,0,0,1,1.89,3,2.92,2.92,0,0,1,.39,1.14c0-.61.77-.57-.31-.35-1.43.3-4.37,1-5.51.73-.41-.12.7-3.52.74-4a21.51,21.51,0,0,0-.37-5.43c-.23-1.27-2.16-.73-1.93.53Z" transform="translate(-16.02 -7.39)"/>
    <path class="cls-21" d="M108.92,57.53c-.2,0-.4,0-.6,0l-.21,0c.21,0-.06,0-.09,0l-.15,0c-.24-.07.18.1,0,0s-.07,0,.05,0c-.05,0-.17-.19,0,0-.15-.2,0,.21,0,0,0,.19,0,.23,0,.13s0-.24,0,.07l0-.1c0-.18-.11.23,0,.05a.41.41,0,0,1,0-.09c.11-.17-.15.19,0,0s.3-.24,0-.06c.07,0,.36-.18.06-.06.08,0,.41-.08.08,0,.09,0,.41,0,.09,0l.13,0c.22.06-.2-.1,0,0s0-.07.16.12a.69.69,0,0,1,.11.13c-.13-.16.06.08.07.1a3,3,0,0,1,.26.49,1,1,0,0,0,1.22.7,1,1,0,0,0,.7-1.23,3.38,3.38,0,0,0-2.06-2.26,2.38,2.38,0,0,0-2.3.69,2,2,0,0,0-.36,2.32c.53.94,1.8,1.08,2.76,1a1,1,0,0,0,0-2Z" transform="translate(-16.02 -7.39)"/>
    <path class="cls-22" d="M136.92,53a3,3,0,0,0,1.41,2.79,4.62,4.62,0,0,0,3.19.34,1,1,0,0,0,.73-1,3.39,3.39,0,0,0-2.73-3.3c-1.26-.23-1.8,1.7-.53,1.93a1.4,1.4,0,0,1,1.26,1.37l.74-1c-1,.19-2.14,0-2.07-1.2s-1.93-1.28-2,0Z" transform="translate(-16.02 -7.39)"/>
    <path class="cls-23" d="M132.46,59.46c.52,2,0,8,3.39,7.37a1,1,0,0,0,.7-.7c.44-2.25,1.38-8.74-2.63-8.26a1,1,0,0,0-.51,1.86c1,.57.69,2.15.68,3.14a1,1,0,0,0,2,0c0-1.84.17-3.85-1.67-4.87-.16.62-.33,1.24-.5,1.87,1.79-.22.9,4.7.7,5.73l.7-.7c.3-.05,0-.39-.13-.75a12.07,12.07,0,0,1-.35-2,22.17,22.17,0,0,0-.46-3.24,1,1,0,0,0-1.92.53Z" transform="translate(-16.02 -7.39)"/>
    <path class="cls-23" d="M135.46,59c.9,2.24,2,6.72-1.71,6.57-1.29,0-1.28,2,0,2,5.27.21,5.09-5.52,3.63-9.1-.47-1.18-2.41-.66-1.92.53Z" transform="translate(-16.02 -7.39)"/>
    <path class="cls-19" d="M133.71,54.24a15.35,15.35,0,0,0,2.87,3c1.06.74,2.06-1,1-1.73a13.87,13.87,0,0,1-2.46-2.67,1,1,0,0,0-1.42,0,1,1,0,0,0,0,1.41Z" transform="translate(-16.02 -7.39)"/>
    <path class="cls-19" d="M136.09,53.06c1.35-.9,2.74-.63,4.26-.74,1.72-.12,2.25.4,2.88,2,1.08,2.81.4,6.27.36,9.19a1,1,0,0,0,2,0c0-3.53,1.2-9.48-1.78-12.27a3.75,3.75,0,0,0-2.92-1c-2,0-4.07-.12-5.81,1.05-1.06.71-.06,2.44,1,1.72Z" transform="translate(-16.02 -7.39)"/>
    <path class="cls-24" d="M129.46,50.74c3.24-3.6,6.35-7.31,9.67-10.83h-1.42c.84.91,5.11,8.18,3.53,8.25-3.76.16-7.72.05-11.49-.13l.51,1.87c3.32-2,7.45-1.58,10.83-3.5a1,1,0,0,0,.2-1.57,7.44,7.44,0,0,0-3-2.16,1,1,0,0,0-1.47,1.13c.2,1.06.46,2.11.67,3.16l1-1.26c-1.6.2-3.16-.4-4.74-.63-1.26-.19-1.8,1.74-.53,1.93,1.76.25,3.48.92,5.27.7a1,1,0,0,0,1-1.27c-.2-1.06-.46-2.1-.66-3.16l-1.47,1.13a6.39,6.39,0,0,1,2.63,1.84l.2-1.57c-3.37,1.91-7.49,1.5-10.83,3.5a1,1,0,0,0,.5,1.86c3.12.15,6.22,0,9.34,0,1.16,0,3.49.59,4.23-.75,1.69-3.06-2.24-8.69-4.19-10.81a1,1,0,0,0-1.42,0c-3.32,3.53-6.43,7.24-9.67,10.84-.86,1,.55,2.37,1.42,1.41Z" transform="translate(-16.02 -7.39)"/>
    <path class="cls-24" d="M139,44.53A6.73,6.73,0,0,0,137.42,43a1,1,0,0,0-1.46.6,10.28,10.28,0,0,1-1.4,3.09l1.57-.2a4.68,4.68,0,0,1-1.08-2.89l-1,1.27c2.75.3,4.54,3.27,7,4.36a1,1,0,0,0,1.47-1.13c-1-3.39-3.3-5.78-6.13-7.76-1.06-.75-2,1-1,1.72a12.22,12.22,0,0,1,5.21,6.57l1.47-1.13c-2.9-1.29-4.66-4.27-8-4.63-.72-.08-1.05.69-1,1.26a6.17,6.17,0,0,0,1.59,3.78,1,1,0,0,0,1.57-.21,11.38,11.38,0,0,0,1.6-3.57l-1.47.6a2.84,2.84,0,0,1,.81.81c.75,1,2.49,0,1.73-1Z" transform="translate(-16.02 -7.39)"/>
    <path class="cls-2" d="M86.62,33.22c-2.36,1-4.69,3.07-2.65,5.57a5.77,5.77,0,0,0,6.93,1.26c2.55-1.43,3.26-5.18.94-7.09-1.51-1.25-5.33-2-5.74.77-.09.63.87.9,1,.27.29-2,3.22-1,4.21-.22,1.9,1.57.84,4.44-1,5.5A4.83,4.83,0,0,1,85,38.43c-2-1.79.08-3.52,1.87-4.25.59-.24.34-1.21-.26-1Z" transform="translate(-16.02 -7.39)"/>
    <path class="cls-2" d="M90.15,42.45a49.25,49.25,0,0,1,4.67,9c.25.59,1.11.08.86-.5A49.51,49.51,0,0,0,91,42c-.37-.53-1.23,0-.87.5Z" transform="translate(-16.02 -7.39)"/>
    <path class="cls-2" d="M93,40.63c4,2.86,8.53,4.69,13,6.67.58.26,1.09-.61.5-.87-4.46-2-9-3.81-13-6.66-.52-.38-1,.49-.5.86Z" transform="translate(-16.02 -7.39)"/>
    <path class="cls-2" d="M95.92,36.2c2.23,0,4.45.16,6.67.33.64,0,.63-1,0-1-2.22-.17-4.44-.32-6.67-.33a.5.5,0,0,0,0,1Z" transform="translate(-16.02 -7.39)"/>
    <path class="cls-2" d="M94.38,31.35a65.27,65.27,0,0,0,6-2.72c.58-.27.07-1.13-.51-.86-1.9.88-3.73,1.92-5.71,2.61-.61.21-.35,1.18.26,1Z" transform="translate(-16.02 -7.39)"/>
    <path class="cls-2" d="M83.6,43.17c.58,2.79-1.22,5.7-2.16,8.23-.23.61.74.86,1,.27,1-2.77,2.8-5.72,2.17-8.77-.13-.63-1.1-.36-1,.27Z" transform="translate(-16.02 -7.39)"/>
    <path class="cls-2" d="M79.5,40.93a19.14,19.14,0,0,1-1.83,1c-.58.29-.07,1.16.5.87a18,18,0,0,0,1.83-1c.54-.35,0-1.22-.5-.87Z" transform="translate(-16.02 -7.39)"/>
    <path class="cls-2" d="M80.59,34h-2.5a.5.5,0,0,0,0,1h2.5a.5.5,0,0,0,0-1Z" transform="translate(-16.02 -7.39)"/>
    <path class="cls-2" d="M83,30.77a9.26,9.26,0,0,1-1.65-1.66c-.39-.5-1.26,0-.86.51a10.93,10.93,0,0,0,2,2c.51.39,1-.48.5-.86Z" transform="translate(-16.02 -7.39)"/>
    <path class="cls-2" d="M87.18,30.45a6.07,6.07,0,0,0,.57-2.58.5.5,0,0,0-1,0A5,5,0,0,1,86.32,30c-.28.58.59,1.08.86.5Z" transform="translate(-16.02 -7.39)"/>
    <path class="cls-2" d="M129.25,67.37c0-5.29.64-10.55.84-15.84,0-.64-1-.64-1,0-.2,5.29-.8,10.55-.84,15.84a.5.5,0,0,0,1,0Z" transform="translate(-16.02 -7.39)"/>
    <path class="cls-2" d="M127,52c2.3-4.86,6.22-8.66,8.83-13.33.31-.57-.55-1.07-.86-.51-2.61,4.68-6.54,8.47-8.84,13.34-.27.58.59,1.08.87.5Z" transform="translate(-16.02 -7.39)"/>
    <path class="cls-2" d="M135.23,38.22c5.29,6.79,10.44,13.69,16.67,19.67.46.44,1.17-.26.71-.71-6.23-6-11.38-12.88-16.67-19.67-.4-.51-1.1.21-.71.71Z" transform="translate(-16.02 -7.39)"/>
    <path class="cls-2" d="M144.6,52c1.26,5.38,1.16,10.88,1.15,16.37a.5.5,0,0,0,1,0c0-5.59.1-11.17-1.18-16.64-.15-.62-1.11-.36-1,.27Z" transform="translate(-16.02 -7.39)"/>
    <path class="cls-2" d="M129.59,67.87c5.35-.09,10.82-1.56,16,.31.61.22.87-.75.26-1-5.3-1.9-10.84-.44-16.29-.35a.5.5,0,0,0,0,1Z" transform="translate(-16.02 -7.39)"/>
    <path class="cls-2" d="M131.94,58.5a27,27,0,0,1,1,8.53.5.5,0,0,0,1,0,27.79,27.79,0,0,0-1-8.8c-.2-.61-1.16-.35-1,.27Z" transform="translate(-16.02 -7.39)"/>
    <path class="cls-2" d="M132.09,58.7h5.33a.5.5,0,0,0,0-1h-5.33a.5.5,0,0,0,0,1Z" transform="translate(-16.02 -7.39)"/>
    <path class="cls-2" d="M127.75,51c6.12,0,12.21-.79,18.34-.83a.5.5,0,0,0,0-1c-6.13,0-12.22.79-18.34.83a.5.5,0,0,0,0,1Z" transform="translate(-16.02 -7.39)"/>
    <path class="cls-2" d="M137.09,58.7a55,55,0,0,1-.49,7c-.08.63.88.91,1,.27a57.53,57.53,0,0,0,.52-7.3.5.5,0,0,0-1,0Z" transform="translate(-16.02 -7.39)"/>
    <path class="cls-2" d="M136.42,53c-.14,1.39,0,2.85,1.42,3.5s3.13.34,4.58.34a.52.52,0,0,0,.48-.37c.38-1.51.45-3.12-1-4.1s-3.36-.7-4.86-.7a.5.5,0,0,0,0,1,14.46,14.46,0,0,1,3.6.24c1.63.41,1.59,1.92,1.25,3.29l.48-.36a23.36,23.36,0,0,1-3.45,0c-1.52-.23-1.69-1.46-1.55-2.8.07-.64-.94-.63-1,0Z" transform="translate(-16.02 -7.39)"/>
    <path class="cls-2" d="M138.75,52.7v2.83a.5.5,0,0,0,1,0V52.7a.5.5,0,0,0-1,0Z" transform="translate(-16.02 -7.39)"/>
    <path class="cls-2" d="M136.75,54.53h5.34a.5.5,0,0,0,0-1h-5.34a.5.5,0,0,0,0,1Z" transform="translate(-16.02 -7.39)"/>
    <path class="cls-2" d="M106.09,73.87a22.75,22.75,0,0,1-.15,5.53c-.11.63.85.9,1,.27a23.47,23.47,0,0,0,.19-5.8c0-.64-1-.65-1,0Z" transform="translate(-16.02 -7.39)"/>
    <path class="cls-2" d="M106.22,79.72c-1.34-.21-2.85-.71-4,.29a.51.51,0,0,0,.1.79,3.85,3.85,0,0,0,3.51,0c.58-.27.07-1.13-.51-.87a2.73,2.73,0,0,1-2.49,0c0,.27.07.53.1.79.77-.68,2.12-.18,3,0,.63.1.9-.86.27-1Z" transform="translate(-16.02 -7.39)"/>
    <path class="cls-2" d="M109.6,73.5a16.67,16.67,0,0,1,.82,6.2.5.5,0,0,0,1,0,17.7,17.7,0,0,0-.85-6.47c-.23-.59-1.2-.33-1,.27Z" transform="translate(-16.02 -7.39)"/>
    <path class="cls-2" d="M111.17,80.63a2.69,2.69,0,0,1,2.45-.62l-.12-.91a3.09,3.09,0,0,1-1.91.43.5.5,0,0,0,0,1A4,4,0,0,0,114,80a.5.5,0,0,0-.12-.91,3.54,3.54,0,0,0-3.21.72c-.51.38,0,1.25.5.86Z" transform="translate(-16.02 -7.39)"/>
    <path class="cls-2" d="M103.92,74.2c3.12,0,6.21-.62,9.33-.67a.5.5,0,0,0,0-1c-3.12,0-6.21.62-9.33.67a.5.5,0,0,0,0,1Z" transform="translate(-16.02 -7.39)"/>
    <path class="cls-2" d="M103.9,73.17c.58-3.76,1.95-7.34,2.35-11.14.07-.64-.93-.63-1,0-.39,3.7-1.75,7.2-2.31,10.87-.1.63.86.9,1,.27Z" transform="translate(-16.02 -7.39)"/>
    <path class="cls-2" d="M110,62.12c1.74,2.92,4.52,6.88,4,10.45-.1.63.86.9,1,.26.63-3.9-2.14-8-4.05-11.22a.5.5,0,0,0-.86.51Z" transform="translate(-16.02 -7.39)"/>
    <path class="cls-2" d="M106,62.13a6,6,0,0,0,2.42.57.5.5,0,0,0,0-1,4.72,4.72,0,0,1-1.92-.43c-.58-.28-1.08.59-.5.86Z" transform="translate(-16.02 -7.39)"/>
    <path class="cls-2" d="M108.42,60.37v.33a.5.5,0,0,0,1,0v-.33a.5.5,0,0,0-1,0Z" transform="translate(-16.02 -7.39)"/>
    <path class="cls-2" d="M109.05,54.88c-1.4-.22-3,.06-3.61,1.53-.65,1.7,1.46,3.05,2.72,3.57s2.77.41,3.28-.91-.64-3-1.67-3.89c-.48-.43-1.19.28-.7.71a3.65,3.65,0,0,1,1.5,2.48c0,.88-.95,1-1.61.81-1-.22-2.57-1-2.6-2.24s1.69-1.21,2.43-1.09.9-.86.26-1Z" transform="translate(-16.02 -7.39)"/>
    <path class="cls-2" d="M113.11,65.89a40.79,40.79,0,0,1,5-4.17c.5-.4-.21-1.1-.71-.71a40.79,40.79,0,0,0-5,4.17c-.44.47.27,1.18.71.71Z" transform="translate(-16.02 -7.39)"/>
    <path class="cls-2" d="M118.52,61.11a4.34,4.34,0,0,1-.43-1.91.5.5,0,0,0-1,0,5.61,5.61,0,0,0,.56,2.42c.28.58,1.15.07.87-.51Z" transform="translate(-16.02 -7.39)"/>
    <path class="cls-2" d="M117.75,61.2a.5.5,0,0,0,0-1,.5.5,0,0,0,0,1Z" transform="translate(-16.02 -7.39)"/>
    <path class="cls-2" d="M118.25,61.87h1.84a.5.5,0,0,0,0-1h-1.84a.5.5,0,0,0,0,1Z" transform="translate(-16.02 -7.39)"/>
    <path class="cls-2" d="M119.42,60.87v-1a.5.5,0,0,0-1,0v1a.5.5,0,0,0,1,0Z" transform="translate(-16.02 -7.39)"/>
    <path class="cls-2" d="M105,65.28c-.72,1.66-3.12,2.17-4.69,2.61s-3.49.76-5.18,1.33c-.61.2-.35,1.17.26,1,2-.66,4.09-1,6.11-1.59,1.56-.48,3.66-1.17,4.36-2.8.25-.59-.61-1.1-.86-.51Z" transform="translate(-16.02 -7.39)"/>
    <path class="cls-2" d="M95.75,69.37a2.61,2.61,0,0,1-1.41-.44c-.55-.34-1,.52-.51.87a3.71,3.71,0,0,0,1.92.57.5.5,0,0,0,0-1Z" transform="translate(-16.02 -7.39)"/>
    <path class="cls-2" d="M95.57,69.73A6.07,6.07,0,0,0,94.68,68c-.35-.54-1.22,0-.86.5A5,5,0,0,1,94.6,70a.5.5,0,0,0,1-.27Z" transform="translate(-16.02 -7.39)"/>
    <path class="cls-2" d="M95.27,70.17a1.89,1.89,0,0,1-.12,1.44.5.5,0,0,0,.87.51,2.9,2.9,0,0,0,.21-2.22c-.14-.63-1.1-.36-1,.27Z" transform="translate(-16.02 -7.39)"/>
    <path class="cls-25" d="M187.21,67.75h-2.57a1.48,1.48,0,0,1-1.19-.38,5.25,5.25,0,0,1-.31-2.44A33.07,33.07,0,0,1,185,53.11q1.22-3.12,1.74-4.82a20.14,20.14,0,0,0,.53-5.51l0-3.63V37c0-2.57-.25-4.16-.73-4.8a2.35,2.35,0,0,0-2-.95,2.41,2.41,0,0,0-2.14,1.15,4.84,4.84,0,0,0-.75,2.69,19.77,19.77,0,0,0,.33,2.75,12.91,12.91,0,0,1,.22,2.05c0,3-1.63,4.51-4.91,4.51s-4.87-2-4.87-5.83a11.68,11.68,0,0,1,3.63-8.77q3.63-3.49,9.89-3.5a14.67,14.67,0,0,1,10.71,4.07,13.6,13.6,0,0,1,4.15,10.14,15.57,15.57,0,0,1-1.17,6q-1.17,2.87-5.93,7.44a17.7,17.7,0,0,0-3.86,4.67,13.84,13.84,0,0,0-.83,4.85,13,13,0,0,1-.4,3.75C188.47,67.58,188,67.75,187.21,67.75ZM186,71.93a5.55,5.55,0,0,1,4.5,2.14,7.93,7.93,0,0,1,1.76,5.22,8.32,8.32,0,0,1-1.83,5.29A5.48,5.48,0,0,1,186,86.91a5.17,5.17,0,0,1-4.19-2.07,8,8,0,0,1-1.67-5.18,9.29,9.29,0,0,1,1.59-5.42A5,5,0,0,1,186,71.93Z" transform="translate(-16.02 -7.39)"/>
  </g>
  <g id="boble_server" data-name="boble server">
    <ellipse class="cls-26" cx="351.38" cy="290" rx="62.76" ry="28"/>
    <ellipse class="cls-26" cx="286.12" cy="315" rx="45.5" ry="25"/>
    <ellipse class="cls-26" cx="404.12" cy="322.5" rx="43.5" ry="32.5"/>
    <path class="cls-26" d="M452.64,366.2c0,15.57-25.74,28.19-57.49,28.19s-57.48-12.62-57.48-28.19S363.41,338,395.15,338,452.64,350.63,452.64,366.2Z" transform="translate(-16.02 -7.39)"/>
    <ellipse class="cls-26" cx="330.62" cy="342" rx="69" ry="36"/>
    <path class="cls-26" d="M435.67,262.16a11.77,11.77,0,1,1-11.77-11.77A11.77,11.77,0,0,1,435.67,262.16Z" transform="translate(-16.02 -7.39)"/>
    <circle class="cls-26" cx="437.07" cy="237.96" r="8.57" transform="translate(88.72 600.99) rotate(-76.67)"/>
    <path class="cls-17" d="M408.5,366.25a1.55,1.55,0,0,1-1.48,1.61H327.77a1.55,1.55,0,0,1-1.48-1.61V310a1.56,1.56,0,0,1,1.48-1.62H407A1.56,1.56,0,0,1,408.5,310Z" transform="translate(-16.02 -7.39)"/>
    <path class="cls-18" d="M338.84,313.83c-2.28.07-4.22,1.87-3.39,4.25a2.82,2.82,0,0,0,2,1.94,2.93,2.93,0,0,0,3-1.6,1.51,1.51,0,0,0-.89-2.2l0,0a1.51,1.51,0,0,0-1.9,1.45,2.81,2.81,0,0,0,.39,1.29,1.52,1.52,0,0,0,2.36.3h0l-1.82.23a2.1,2.1,0,0,0,1.11.32,1.52,1.52,0,0,0,1.45-1.9.52.52,0,0,1,0-.11,1.51,1.51,0,0,0-2.9,0,3.61,3.61,0,0,0,.89,4c1.43,1.29,3.56-.82,2.12-2.12-.38-.35-.27-.54-.11-1h-2.9l0,.11,1.44-1.9.4.09a1.53,1.53,0,0,0-1.81.24h0l2.35.31c-.1-.17,0,.16,0,.22l-1.9,1.45h0c-.3-.73-.6-1.47-.89-2.2-.29.44-.19.13.3.21-.29-.05.31.25.1,0,.27.28-.09-.33,0,0l-.06-.25q0,.27,0,0c0,.14,0,.11,0,0-.06.1,0,0,.12-.05a2.56,2.56,0,0,0,.43,0c1.93-.06,1.93-3.06,0-3Z" transform="translate(-16.02 -7.39)"/>
    <path class="cls-18" d="M334.56,318.9c2.12,6.27,10.36,1.35,10.11-3.73-.09-1.93-3.1-1.94-3,0,.08,1.6-3.36,5.48-4.22,2.93-.62-1.82-3.52-1-2.89.8Z" transform="translate(-16.02 -7.39)"/>
    <path class="cls-18" d="M333,324.63a8,8,0,0,1-.12,6.28c-.26.59.6,1.09.87.51a9,9,0,0,0,.21-7.05c-.22-.6-1.19-.34-1,.26Z" transform="translate(-16.02 -7.39)"/>
    <path class="cls-18" d="M339.74,323.92a36.48,36.48,0,0,0,5.08,7.77c.41.49,1.12-.22.7-.71a35.64,35.64,0,0,1-4.92-7.57c-.28-.58-1.14-.07-.86.51Z" transform="translate(-16.02 -7.39)"/>
    <path class="cls-18" d="M344.25,323.26a43.37,43.37,0,0,0,14.62,7.06.5.5,0,0,0,.27-1,42.44,42.44,0,0,1-14.38-7c-.52-.38-1,.49-.51.86Z" transform="translate(-16.02 -7.39)"/>
    <path class="cls-18" d="M345,317.32a14.63,14.63,0,0,0,3.8.18.5.5,0,0,0,0-1,13.51,13.51,0,0,1-3.54-.15.5.5,0,0,0-.26,1Z" transform="translate(-16.02 -7.39)"/>
    <path class="cls-18" d="M337.5,312a14.48,14.48,0,0,0-.18-2.63c-.12-.64-1.08-.37-1,.26a12.59,12.59,0,0,1,.15,2.37.5.5,0,0,0,1,0Z" transform="translate(-16.02 -7.39)"/>
    <path class="cls-18" d="M332.86,312.81a7.75,7.75,0,0,0-2.44-2.08c-.57-.29-1.08.57-.5.87a7.08,7.08,0,0,1,2.23,1.92c.4.5,1.11-.21.71-.71Z" transform="translate(-16.02 -7.39)"/>
    <path class="cls-19" d="M382.17,334.83c-.05.73-.13,1.44-.17,2.17l1.71-.71a19,19,0,0,1-2.51-3.13,1,1,0,0,0-1.73,1,12.11,12.11,0,0,1,1.24,3.6,1,1,0,0,0,1.92,0c.27-1.53,1.28-6.19,3.18-3.27a1,1,0,0,0,1.82-.77v0l-1.82.23c1.26,2.22,1.89,4.72,3.33,6.84.44.65,1.65.68,1.83-.24a40,40,0,0,0,.31-4.1,9.47,9.47,0,0,1,.19-1.3c.19-1,0-.17-.08-.29,1.19,1.21,1.18,3.14,1.2,4.71,0,1.18-.07,2.36-.09,3.55,0,1.47,0,2.2-1.63,2.24-3.5.07-7-.08-10.53-.08L381,347c2.12-2.73,5.83-3.38,8.63-5.18a1,1,0,0,0,.36-1.36,8.54,8.54,0,0,0-3-2.21c-1-.51-2.63-1.73-3.76-1.42s-1.87,2.12-2.37,3.08A14,14,0,0,0,379,345c-.13,1.28,1.87,1.27,2,0,0-.12,2.5-6.26,2.71-6.08,1.31,1.1,3.51,1.14,4.6,2.58l.36-1.36c-3,1.9-6.79,2.59-9,5.49a1,1,0,0,0,.71,1.7c3,0,6-.06,8.93,0a7.71,7.71,0,0,0,3.93-.45c1.08-.57,1.25-2,1.31-3.09a34.53,34.53,0,0,0,0-6.43c-.22-1.57-1.94-6.27-4.26-4.2-1.6,1.44-.81,5-1.17,6.88l1.83-.24c-1.44-2.12-2.08-4.62-3.34-6.83a1,1,0,0,0-1.82.23,1.76,1.76,0,0,0,0,1l1.82-.77c-.76-1.18-2.27-3.05-3.91-2-1.92,1.18-2.55,3.69-2.91,5.77h1.92a13.43,13.43,0,0,0-1.43-4.07l-1.73,1a22,22,0,0,0,2.83,3.54A1,1,0,0,0,384,337c0-.73.12-1.44.17-2.17.08-1.29-1.92-1.28-2,0Z" transform="translate(-16.02 -7.39)"/>
    <path class="cls-19" d="M383.84,337.83a7,7,0,0,1-2.71,5.63l1.71.71c.17-3.45,2.14-6.5,3.13-9.74l-1.47.6c2.45,1.31,7.42,5.1,6.37,8.37h1.93a23.93,23.93,0,0,1-.13-4.4l-1.71.71c2.16,1.71,1.28,5.09,3.34,7,.94.87,2.36-.54,1.41-1.42-2-1.84-1-5.17-3.33-7a1,1,0,0,0-1.71.71,27.06,27.06,0,0,0,.2,4.93c.18,1,1.65.87,1.93,0,1.39-4.31-4-8.85-7.29-10.63a1,1,0,0,0-1.47.6c-1.05,3.45-3,6.6-3.2,10.27,0,1,1.08,1.19,1.7.7a8.78,8.78,0,0,0,3.3-7c-.1-1.27-2.1-1.28-2,0Z" transform="translate(-16.02 -7.39)"/>
    <path class="cls-19" d="M391.84,345a5.28,5.28,0,0,0-.35-1.89l-1.83.77c.49.65,1,1.3,1.49,1.95a1,1,0,0,0,1.71-.71,9.09,9.09,0,0,0-2-5,1,1,0,0,0-1.67.44c-.25,1.52-.1,3.16-.74,4.59l1.87.51c-.3-2.46.49-5.46-1.43-7.42a9.77,9.77,0,0,0-5.88-2.62c-4.35-.29-2.68,8.33-3.89,10.53-.62,1.13,1.11,2.14,1.73,1,1.36-2.5.74-5.61,1.32-8.31.48-2.26,3-.65,4.3.08,2.48,1.43,1.55,4.32,1.85,6.73.1.85,1.41,1.53,1.86.5.74-1.68.65-3.29.93-5.07l-1.67.44a6.55,6.55,0,0,1,1.4,3.58l1.7-.71c-.39-.51-.79-1-1.17-1.54-.63-.84-2.22-.39-1.83.77.09.45.19.91.28,1.36.07,1.28,2.07,1.29,2,0Z" transform="translate(-16.02 -7.39)"/>
    <path class="cls-18" d="M327.92,316.93a4.11,4.11,0,0,1,1.75-.43.5.5,0,0,0,0-1,5.35,5.35,0,0,0-2.25.57c-.58.28-.08,1.14.5.86Z" transform="translate(-16.02 -7.39)"/>
    <path class="cls-18" d="M328.27,324.42a1.86,1.86,0,0,1,.87-.77c.59-.23.33-1.19-.27-1a3.1,3.1,0,0,0-1.47,1.23c-.36.54.51,1,.87.51Z" transform="translate(-16.02 -7.39)"/>
    <path class="cls-18" d="M344.19,313.85c1.64-1.7,4.35-2.46,6.61-2.87.64-.11.37-1.08-.26-1-2.43.43-5.3,1.31-7.06,3.13-.44.46.26,1.17.71.7Z" transform="translate(-16.02 -7.39)"/>
    <path class="cls-20" d="M355.87,344.6a14.89,14.89,0,0,1-.41,7.5c-.36,1.16-.32,2.67,1,3.18,2,.81,5.27-.18,7.32-.6,4.66-1-3.8-10.28-5.06-11.89-.66-.84-1.88.09-1.67,1,.48,2.06,2.6,8.11.29,9.53l1.47.6c-.47-1.41-1.12-4.33-.43-5.73.4-.82,1.7,1.64,1.86,1.95a10.12,10.12,0,0,1,1.11,3.21l1-1c-1.09-.13-1.64-1-2.14-1.83-.68-1.1-2.41-.1-1.73,1a5.09,5.09,0,0,0,3.87,2.83,1,1,0,0,0,1-1c-.3-2.37-1.89-7.4-4.89-7.42-3.47,0-2.18,6.73-1.58,8.52a1,1,0,0,0,1.47.6c3.57-2.21,1.37-8.63.63-11.8l-1.67,1c1.24,1.58,2.5,3.15,3.67,4.79a26.29,26.29,0,0,1,1.89,3,2.92,2.92,0,0,1,.39,1.14c0-.62.77-.58-.31-.35-1.43.3-4.37,1.05-5.5.73-.42-.12.69-3.52.73-4a21.51,21.51,0,0,0-.37-5.43c-.23-1.27-2.16-.73-1.93.53Z" transform="translate(-16.02 -7.39)"/>
    <path class="cls-21" d="M359.17,339c-.2,0-.4,0-.6,0h-.21c.21,0-.06,0-.09,0l-.15,0c-.24-.08.18.09,0,0s-.07,0,.06.05c-.06-.05-.18-.2,0,0-.16-.2,0,.21,0,0,0,.19,0,.23,0,.12s0-.24,0,.08l0-.1c.05-.18-.11.23,0,.05l0-.09c.11-.17-.15.18,0,0s.31-.25.05-.06c.07,0,.36-.18.06-.06.09,0,.41-.09.08,0,.09,0,.41,0,.09,0a.28.28,0,0,1,.13,0c.22.06-.2-.11,0,0s-.05-.07.16.12l.11.12c-.13-.15.06.09.07.11a2.33,2.33,0,0,1,.26.49,1,1,0,0,0,1.23.69,1,1,0,0,0,.69-1.23,3.36,3.36,0,0,0-2.06-2.25,2.34,2.34,0,0,0-2.29.69,2,2,0,0,0-.37,2.31c.53.95,1.8,1.08,2.76,1a1,1,0,0,0,1-1,1,1,0,0,0-1-1Z" transform="translate(-16.02 -7.39)"/>
    <path class="cls-22" d="M387.17,334.5a3,3,0,0,0,1.41,2.79,4.63,4.63,0,0,0,3.19.34,1,1,0,0,0,.73-1,3.38,3.38,0,0,0-2.73-3.3c-1.26-.23-1.8,1.7-.53,1.93a1.4,1.4,0,0,1,1.26,1.37l.74-1c-1,.19-2.14,0-2.07-1.2s-1.93-1.28-2,0Z" transform="translate(-16.02 -7.39)"/>
    <path class="cls-23" d="M382.71,340.93c.52,2,0,8,3.39,7.37a1,1,0,0,0,.7-.7c.44-2.26,1.38-8.74-2.63-8.27-.91.11-1.46,1.34-.5,1.87s.68,2.14.67,3.13a1,1,0,0,0,2,0c0-1.83.18-3.84-1.67-4.86-.16.62-.33,1.24-.5,1.86,1.79-.21.9,4.71.7,5.74l.7-.7c.3-.05,0-.39-.13-.75a12.07,12.07,0,0,1-.35-2,22.17,22.17,0,0,0-.46-3.24,1,1,0,0,0-1.92.53Z" transform="translate(-16.02 -7.39)"/>
    <path class="cls-23" d="M385.71,340.43c.9,2.24,2,6.72-1.71,6.57-1.29-.05-1.28,1.95,0,2,5.27.21,5.09-5.52,3.63-9.1-.47-1.18-2.41-.66-1.92.53Z" transform="translate(-16.02 -7.39)"/>
    <path class="cls-19" d="M384,335.71a15.35,15.35,0,0,0,2.87,3c1.06.73,2.06-1,1-1.73a13.64,13.64,0,0,1-2.46-2.68,1,1,0,0,0-1.42,0,1,1,0,0,0,0,1.42Z" transform="translate(-16.02 -7.39)"/>
    <path class="cls-19" d="M386.34,334.53c1.35-.91,2.74-.63,4.26-.74,1.72-.12,2.25.4,2.88,2,1.08,2.8.4,6.26.36,9.19a1,1,0,0,0,2,0c.05-3.53,1.2-9.48-1.78-12.28a3.75,3.75,0,0,0-2.92-1c-2,0-4.07-.12-5.81,1-1.06.72-.06,2.45,1,1.73Z" transform="translate(-16.02 -7.39)"/>
    <path class="cls-24" d="M379.71,332.21c3.24-3.6,6.35-7.31,9.67-10.84H388c.84.91,5.12,8.19,3.53,8.25-3.76.16-7.72.06-11.49-.12l.51,1.86c3.32-2,7.45-1.58,10.83-3.5a1,1,0,0,0,.2-1.57,7.52,7.52,0,0,0-3-2.15,1,1,0,0,0-1.47,1.13c.21,1.06.46,2.1.67,3.16l1-1.26c-1.6.2-3.16-.4-4.73-.63-1.27-.19-1.81,1.74-.54,1.92,1.76.26,3.48.93,5.27.71a1,1,0,0,0,1-1.27c-.2-1.06-.46-2.11-.66-3.17l-1.47,1.13a6.5,6.5,0,0,1,2.63,1.85c.07-.53.13-1,.2-1.57-3.37,1.91-7.48,1.5-10.83,3.5a1,1,0,0,0,.5,1.86c3.12.15,6.22-.05,9.34,0,1.16,0,3.49.6,4.23-.75,1.69-3.05-2.24-8.68-4.19-10.8a1,1,0,0,0-1.42,0c-3.32,3.52-6.43,7.24-9.66,10.83-.86,1,.55,2.38,1.41,1.42Z" transform="translate(-16.02 -7.39)"/>
    <path class="cls-24" d="M389.2,326a6.54,6.54,0,0,0-1.53-1.53,1,1,0,0,0-1.46.6,10,10,0,0,1-1.4,3.09l1.57-.2a4.7,4.7,0,0,1-1.08-2.89l-1,1.26c2.75.3,4.55,3.28,7,4.37a1,1,0,0,0,1.47-1.13c-1-3.39-3.3-5.79-6.13-7.77-1.05-.74-2.05,1-1,1.73a12.25,12.25,0,0,1,5.2,6.57l1.47-1.13c-2.9-1.29-4.66-4.27-8-4.64-.72-.08-1,.7-1,1.27a6.12,6.12,0,0,0,1.59,3.77,1,1,0,0,0,1.57-.2,11.38,11.38,0,0,0,1.6-3.57l-1.46.6a2.77,2.77,0,0,1,.8.8c.76,1,2.49,0,1.73-1Z" transform="translate(-16.02 -7.39)"/>
    <path class="cls-2" d="M336.87,314.68c-2.36,1-4.68,3.07-2.65,5.57a5.77,5.77,0,0,0,6.93,1.26c2.55-1.42,3.27-5.17.94-7.09-1.51-1.24-5.33-2-5.74.78-.09.63.87.9,1,.27.29-2,3.22-1,4.21-.22,1.9,1.56.84,4.44-1,5.49a4.81,4.81,0,0,1-5.22-.84c-2-1.79.08-3.52,1.88-4.25.58-.24.33-1.21-.27-1Z" transform="translate(-16.02 -7.39)"/>
    <path class="cls-2" d="M340.4,323.92a49.25,49.25,0,0,1,4.67,9c.25.59,1.11.08.86-.51a49.83,49.83,0,0,0-4.66-9c-.37-.52-1.23,0-.87.51Z" transform="translate(-16.02 -7.39)"/>
    <path class="cls-2" d="M343.25,322.1c4,2.86,8.53,4.69,13,6.66.58.26,1.09-.6.51-.86-4.47-2-9-3.81-13-6.67-.53-.37-1,.5-.51.87Z" transform="translate(-16.02 -7.39)"/>
    <path class="cls-2" d="M346.17,317.67c2.23,0,4.45.16,6.67.33.64.05.63-.95,0-1-2.22-.17-4.44-.32-6.67-.33a.5.5,0,0,0,0,1Z" transform="translate(-16.02 -7.39)"/>
    <path class="cls-2" d="M344.64,312.82c2.06-.73,4-1.8,5.95-2.72.58-.27.08-1.13-.51-.87a60,60,0,0,1-5.71,2.62c-.6.21-.34,1.18.27,1Z" transform="translate(-16.02 -7.39)"/>
    <path class="cls-2" d="M333.85,324.63c.58,2.8-1.22,5.7-2.16,8.24-.23.6.74.86,1,.26,1-2.76,2.8-5.71,2.17-8.76-.13-.63-1.1-.37-1,.26Z" transform="translate(-16.02 -7.39)"/>
    <path class="cls-2" d="M329.75,322.4a18,18,0,0,1-1.83,1c-.58.29-.07,1.15.5.86a19.29,19.29,0,0,0,1.84-1c.53-.34,0-1.21-.51-.86Z" transform="translate(-16.02 -7.39)"/>
    <path class="cls-2" d="M330.84,315.5h-2.5a.5.5,0,0,0,0,1h2.5a.5.5,0,0,0,0-1Z" transform="translate(-16.02 -7.39)"/>
    <path class="cls-2" d="M333.26,312.23a8.65,8.65,0,0,1-1.66-1.65c-.39-.5-1.25,0-.86.51a10.93,10.93,0,0,0,2,2c.51.39,1-.48.51-.87Z" transform="translate(-16.02 -7.39)"/>
    <path class="cls-2" d="M337.43,311.92a6.08,6.08,0,0,0,.57-2.59.5.5,0,0,0-1,0,4.94,4.94,0,0,1-.43,2.08c-.27.58.59,1.09.86.51Z" transform="translate(-16.02 -7.39)"/>
    <path class="cls-2" d="M379.5,348.83c0-5.29.64-10.55.84-15.83,0-.64-1-.64-1,0-.2,5.28-.8,10.54-.84,15.83a.5.5,0,0,0,1,0Z" transform="translate(-16.02 -7.39)"/>
    <path class="cls-2" d="M377.27,333.42c2.3-4.86,6.22-8.66,8.83-13.33.32-.57-.55-1.07-.86-.51-2.61,4.68-6.53,8.47-8.83,13.33-.28.58.58,1.09.86.51Z" transform="translate(-16.02 -7.39)"/>
    <path class="cls-2" d="M385.48,319.69c5.29,6.79,10.44,13.69,16.67,19.66.46.45,1.17-.26.71-.7-6.23-6-11.38-12.88-16.67-19.67-.4-.51-1.1.2-.71.71Z" transform="translate(-16.02 -7.39)"/>
    <path class="cls-2" d="M394.85,333.47c1.26,5.38,1.16,10.87,1.15,16.36a.5.5,0,0,0,1,0c0-5.58.1-11.16-1.18-16.63-.15-.63-1.11-.36-1,.27Z" transform="translate(-16.02 -7.39)"/>
    <path class="cls-2" d="M379.84,349.33c5.36-.08,10.82-1.55,16,.32.61.22.87-.75.27-1-5.31-1.9-10.85-.43-16.3-.35a.5.5,0,0,0,0,1Z" transform="translate(-16.02 -7.39)"/>
    <path class="cls-2" d="M382.19,340a27,27,0,0,1,1,8.53.5.5,0,0,0,1,0,27.79,27.79,0,0,0-1-8.8c-.2-.61-1.16-.35-1,.27Z" transform="translate(-16.02 -7.39)"/>
    <path class="cls-2" d="M382.34,340.17h5.33a.5.5,0,0,0,0-1h-5.33a.5.5,0,0,0,0,1Z" transform="translate(-16.02 -7.39)"/>
    <path class="cls-2" d="M378,332.5c6.12,0,12.21-.79,18.34-.83a.5.5,0,0,0,0-1c-6.13,0-12.22.79-18.34.83a.5.5,0,0,0,0,1Z" transform="translate(-16.02 -7.39)"/>
    <path class="cls-2" d="M387.34,340.17a51.69,51.69,0,0,1-.49,7c-.08.63.88.9,1,.27a55.87,55.87,0,0,0,.52-7.3.5.5,0,0,0-1,0Z" transform="translate(-16.02 -7.39)"/>
    <path class="cls-2" d="M386.67,334.5c-.14,1.38,0,2.84,1.42,3.5s3.13.34,4.58.33a.5.5,0,0,0,.48-.36c.38-1.51.45-3.12-.95-4.1s-3.36-.7-4.86-.7a.5.5,0,0,0,0,1,14.46,14.46,0,0,1,3.6.24c1.63.41,1.59,1.92,1.25,3.29l.48-.37a22.08,22.08,0,0,1-3.45,0c-1.52-.23-1.69-1.47-1.55-2.8.07-.64-.93-.63-1,0Z" transform="translate(-16.02 -7.39)"/>
    <path class="cls-2" d="M389,334.17V337a.5.5,0,0,0,1,0v-2.83a.5.5,0,0,0-1,0Z" transform="translate(-16.02 -7.39)"/>
    <path class="cls-2" d="M387,336h5.34a.5.5,0,0,0,0-1H387a.5.5,0,0,0,0,1Z" transform="translate(-16.02 -7.39)"/>
    <path class="cls-2" d="M356.34,355.33a22.82,22.82,0,0,1-.15,5.54c-.11.63.85.9,1,.26a23.46,23.46,0,0,0,.19-5.8c0-.64-1-.64-1,0Z" transform="translate(-16.02 -7.39)"/>
    <path class="cls-2" d="M356.47,361.18c-1.34-.2-2.85-.7-4,.3a.5.5,0,0,0,.1.78,3.79,3.79,0,0,0,3.51,0c.58-.26.08-1.13-.51-.86a2.73,2.73,0,0,1-2.49,0c0,.26.07.52.1.79.77-.68,2.12-.18,3,0,.63.1.91-.87.27-1Z" transform="translate(-16.02 -7.39)"/>
    <path class="cls-2" d="M359.85,355a16.67,16.67,0,0,1,.82,6.2.5.5,0,0,0,1,0,17.67,17.67,0,0,0-.85-6.47c-.23-.59-1.2-.34-1,.27Z" transform="translate(-16.02 -7.39)"/>
    <path class="cls-2" d="M361.42,362.1a2.66,2.66,0,0,1,2.45-.62l-.12-.91a3.09,3.09,0,0,1-1.91.43.5.5,0,0,0,0,1,4,4,0,0,0,2.41-.57.5.5,0,0,0-.11-.91,3.58,3.58,0,0,0-3.22.71c-.51.39,0,1.26.5.87Z" transform="translate(-16.02 -7.39)"/>
    <path class="cls-2" d="M354.17,355.67c3.12-.05,6.21-.63,9.33-.67a.5.5,0,0,0,0-1c-3.12,0-6.21.62-9.33.67a.5.5,0,0,0,0,1Z" transform="translate(-16.02 -7.39)"/>
    <path class="cls-2" d="M354.15,354.63c.58-3.76,2-7.34,2.35-11.13.07-.64-.93-.63-1,0-.39,3.7-1.75,7.2-2.31,10.87-.1.63.86.9,1,.26Z" transform="translate(-16.02 -7.39)"/>
    <path class="cls-2" d="M360.24,343.59c1.75,2.91,4.52,6.88,3.95,10.44-.1.63.86.91,1,.27.63-3.91-2.14-8-4-11.22a.5.5,0,0,0-.86.51Z" transform="translate(-16.02 -7.39)"/>
    <path class="cls-2" d="M356.25,343.6a6,6,0,0,0,2.42.57.5.5,0,0,0,0-1,4.65,4.65,0,0,1-1.91-.44c-.58-.27-1.09.59-.51.87Z" transform="translate(-16.02 -7.39)"/>
    <path class="cls-2" d="M358.67,341.83v.34a.5.5,0,0,0,1,0v-.34a.5.5,0,0,0-1,0Z" transform="translate(-16.02 -7.39)"/>
    <path class="cls-2" d="M359.3,336.35c-1.4-.23-3,0-3.61,1.53-.65,1.7,1.46,3.05,2.72,3.56s2.77.42,3.28-.9c.56-1.47-.64-3-1.67-3.89-.48-.43-1.19.28-.7.7a3.69,3.69,0,0,1,1.5,2.48c0,.88-.95.95-1.6.82-1-.22-2.58-1-2.61-2.24s1.69-1.22,2.43-1.09.9-.87.26-1Z" transform="translate(-16.02 -7.39)"/>
    <path class="cls-2" d="M363.36,347.35a41.63,41.63,0,0,1,5-4.16c.5-.4-.21-1.11-.71-.71a40.79,40.79,0,0,0-5,4.17c-.44.47.27,1.18.71.7Z" transform="translate(-16.02 -7.39)"/>
    <path class="cls-2" d="M368.77,342.58a4.37,4.37,0,0,1-.43-1.91.5.5,0,0,0-1,0,5.55,5.55,0,0,0,.57,2.42c.28.58,1.14.07.86-.51Z" transform="translate(-16.02 -7.39)"/>
    <path class="cls-2" d="M368,342.67a.5.5,0,0,0,0-1,.5.5,0,0,0,0,1Z" transform="translate(-16.02 -7.39)"/>
    <path class="cls-2" d="M368.5,343.33h1.84a.5.5,0,0,0,0-1H368.5a.5.5,0,0,0,0,1Z" transform="translate(-16.02 -7.39)"/>
    <path class="cls-2" d="M369.67,342.33v-1a.5.5,0,0,0-1,0v1a.5.5,0,0,0,1,0Z" transform="translate(-16.02 -7.39)"/>
    <path class="cls-2" d="M355.24,346.75c-.71,1.66-3.12,2.16-4.69,2.61s-3.49.76-5.18,1.32c-.61.21-.35,1.17.27,1,2-.67,4.09-1,6.1-1.6,1.57-.47,3.66-1.16,4.36-2.8.25-.58-.61-1.09-.86-.5Z" transform="translate(-16.02 -7.39)"/>
    <path class="cls-2" d="M346,350.83a2.54,2.54,0,0,1-1.41-.43c-.55-.35-1,.52-.51.86a3.54,3.54,0,0,0,1.92.57.5.5,0,0,0,0-1Z" transform="translate(-16.02 -7.39)"/>
    <path class="cls-2" d="M345.82,351.2a6.12,6.12,0,0,0-.89-1.79c-.35-.53-1.22,0-.86.51a5,5,0,0,1,.78,1.55.5.5,0,0,0,1-.27Z" transform="translate(-16.02 -7.39)"/>
    <path class="cls-2" d="M345.52,351.63a1.87,1.87,0,0,1-.12,1.45.5.5,0,0,0,.87.51,2.9,2.9,0,0,0,.21-2.22c-.14-.63-1.1-.36-1,.26Z" transform="translate(-16.02 -7.39)"/>
    <g>
      <polyline class="cls-27" points="310.27 302.75 310.27 300.75 312.27 300.75"/>
      <line class="cls-28" x1="315.51" y1="300.75" x2="320.36" y2="300.75"/>
      <polyline class="cls-27" points="321.98 300.75 323.98 300.75 323.98 302.75"/>
      <line class="cls-29" x1="323.98" y1="306.37" x2="323.98" y2="311.79"/>
      <polyline class="cls-27" points="323.98 313.6 323.98 315.6 321.98 315.6"/>
      <line class="cls-28" x1="318.74" y1="315.6" x2="313.89" y2="315.6"/>
      <polyline class="cls-27" points="312.27 315.6 310.27 315.6 310.27 313.6"/>
      <line class="cls-29" x1="310.27" y1="309.99" x2="310.27" y2="304.56"/>
    </g>
    <g>
      <polyline class="cls-27" points="323.98 302.75 323.98 300.75 325.98 300.75"/>
      <line class="cls-30" x1="329.21" y1="300.75" x2="334.06" y2="300.75"/>
      <polyline class="cls-27" points="335.68 300.75 337.68 300.75 337.68 302.75"/>
      <line class="cls-29" x1="337.68" y1="306.37" x2="337.68" y2="311.79"/>
      <polyline class="cls-27" points="337.68 313.6 337.68 315.6 335.68 315.6"/>
      <line class="cls-30" x1="332.44" y1="315.6" x2="327.59" y2="315.6"/>
      <polyline class="cls-27" points="325.98 315.6 323.98 315.6 323.98 313.6"/>
      <line class="cls-29" x1="323.98" y1="309.99" x2="323.98" y2="304.56"/>
    </g>
    <g>
      <polyline class="cls-27" points="337.68 302.75 337.68 300.75 339.68 300.75"/>
      <line class="cls-28" x1="342.91" y1="300.75" x2="347.76" y2="300.75"/>
      <polyline class="cls-27" points="349.38 300.75 351.38 300.75 351.38 302.75"/>
      <line class="cls-29" x1="351.38" y1="306.37" x2="351.38" y2="311.79"/>
      <polyline class="cls-27" points="351.38 313.6 351.38 315.6 349.38 315.6"/>
      <line class="cls-28" x1="346.14" y1="315.6" x2="341.29" y2="315.6"/>
      <polyline class="cls-27" points="339.68 315.6 337.68 315.6 337.68 313.6"/>
      <line class="cls-29" x1="337.68" y1="309.99" x2="337.68" y2="304.56"/>
    </g>
    <g>
      <polyline class="cls-27" points="351.38 302.75 351.38 300.75 353.38 300.75"/>
      <line class="cls-28" x1="356.61" y1="300.75" x2="361.46" y2="300.75"/>
      <polyline class="cls-27" points="363.08 300.75 365.08 300.75 365.08 302.75"/>
      <line class="cls-29" x1="365.08" y1="306.37" x2="365.08" y2="311.79"/>
      <polyline class="cls-27" points="365.08 313.6 365.08 315.6 363.08 315.6"/>
      <line class="cls-28" x1="359.84" y1="315.6" x2="354.99" y2="315.6"/>
      <polyline class="cls-27" points="353.38 315.6 351.38 315.6 351.38 313.6"/>
      <line class="cls-29" x1="351.38" y1="309.99" x2="351.38" y2="304.56"/>
    </g>
    <g>
      <polyline class="cls-27" points="365.08 302.75 365.08 300.75 367.08 300.75"/>
      <line class="cls-30" x1="370.31" y1="300.75" x2="375.16" y2="300.75"/>
      <polyline class="cls-27" points="376.78 300.75 378.78 300.75 378.78 302.75"/>
      <line class="cls-29" x1="378.78" y1="306.37" x2="378.78" y2="311.79"/>
      <polyline class="cls-27" points="378.78 313.6 378.78 315.6 376.78 315.6"/>
      <line class="cls-30" x1="373.55" y1="315.6" x2="368.69" y2="315.6"/>
      <polyline class="cls-27" points="367.08 315.6 365.08 315.6 365.08 313.6"/>
      <line class="cls-29" x1="365.08" y1="309.99" x2="365.08" y2="304.56"/>
    </g>
    <g>
      <polyline class="cls-27" points="378.78 302.75 378.78 300.75 380.78 300.75"/>
      <line class="cls-28" x1="384.01" y1="300.75" x2="388.86" y2="300.75"/>
      <polyline class="cls-27" points="390.48 300.75 392.48 300.75 392.48 302.75"/>
      <line class="cls-29" x1="392.48" y1="306.37" x2="392.48" y2="311.79"/>
      <polyline class="cls-27" points="392.48 313.6 392.48 315.6 390.48 315.6"/>
      <line class="cls-28" x1="387.25" y1="315.6" x2="382.4" y2="315.6"/>
      <polyline class="cls-27" points="380.78 315.6 378.78 315.6 378.78 313.6"/>
      <line class="cls-29" x1="378.78" y1="309.99" x2="378.78" y2="304.56"/>
    </g>
    <g>
      <polyline class="cls-27" points="310.27 317.64 310.27 315.64 312.27 315.64"/>
      <line class="cls-28" x1="315.51" y1="315.64" x2="320.36" y2="315.64"/>
      <polyline class="cls-27" points="321.98 315.64 323.98 315.64 323.98 317.64"/>
      <line class="cls-29" x1="323.98" y1="321.26" x2="323.98" y2="326.69"/>
      <polyline class="cls-27" points="323.98 328.5 323.98 330.5 321.98 330.5"/>
      <line class="cls-28" x1="318.74" y1="330.5" x2="313.89" y2="330.5"/>
      <polyline class="cls-27" points="312.27 330.5 310.27 330.5 310.27 328.5"/>
      <line class="cls-29" x1="310.27" y1="324.88" x2="310.27" y2="319.45"/>
    </g>
    <g>
      <polyline class="cls-27" points="323.98 317.64 323.98 315.64 325.98 315.64"/>
      <line class="cls-30" x1="329.21" y1="315.64" x2="334.06" y2="315.64"/>
      <polyline class="cls-27" points="335.68 315.64 337.68 315.64 337.68 317.64"/>
      <line class="cls-29" x1="337.68" y1="321.26" x2="337.68" y2="326.69"/>
      <polyline class="cls-27" points="337.68 328.5 337.68 330.5 335.68 330.5"/>
      <line class="cls-30" x1="332.44" y1="330.5" x2="327.59" y2="330.5"/>
      <polyline class="cls-27" points="325.98 330.5 323.98 330.5 323.98 328.5"/>
      <line class="cls-29" x1="323.98" y1="324.88" x2="323.98" y2="319.45"/>
    </g>
    <g>
      <polyline class="cls-27" points="337.68 317.64 337.68 315.64 339.68 315.64"/>
      <line class="cls-28" x1="342.91" y1="315.64" x2="347.76" y2="315.64"/>
      <polyline class="cls-27" points="349.38 315.64 351.38 315.64 351.38 317.64"/>
      <line class="cls-29" x1="351.38" y1="321.26" x2="351.38" y2="326.69"/>
      <polyline class="cls-27" points="351.38 328.5 351.38 330.5 349.38 330.5"/>
      <line class="cls-28" x1="346.14" y1="330.5" x2="341.29" y2="330.5"/>
      <polyline class="cls-27" points="339.68 330.5 337.68 330.5 337.68 328.5"/>
      <line class="cls-29" x1="337.68" y1="324.88" x2="337.68" y2="319.45"/>
    </g>
    <g>
      <polyline class="cls-27" points="351.38 317.64 351.38 315.64 353.38 315.64"/>
      <line class="cls-28" x1="356.61" y1="315.64" x2="361.46" y2="315.64"/>
      <polyline class="cls-27" points="363.08 315.64 365.08 315.64 365.08 317.64"/>
      <line class="cls-29" x1="365.08" y1="321.26" x2="365.08" y2="326.69"/>
      <polyline class="cls-27" points="365.08 328.5 365.08 330.5 363.08 330.5"/>
      <line class="cls-28" x1="359.84" y1="330.5" x2="354.99" y2="330.5"/>
      <polyline class="cls-27" points="353.38 330.5 351.38 330.5 351.38 328.5"/>
      <line class="cls-29" x1="351.38" y1="324.88" x2="351.38" y2="319.45"/>
    </g>
    <g>
      <polyline class="cls-27" points="365.08 317.64 365.08 315.64 367.08 315.64"/>
      <line class="cls-30" x1="370.31" y1="315.64" x2="375.16" y2="315.64"/>
      <polyline class="cls-27" points="376.78 315.64 378.78 315.64 378.78 317.64"/>
      <line class="cls-29" x1="378.78" y1="321.26" x2="378.78" y2="326.69"/>
      <polyline class="cls-27" points="378.78 328.5 378.78 330.5 376.78 330.5"/>
      <line class="cls-30" x1="373.55" y1="330.5" x2="368.69" y2="330.5"/>
      <polyline class="cls-27" points="367.08 330.5 365.08 330.5 365.08 328.5"/>
      <line class="cls-29" x1="365.08" y1="324.88" x2="365.08" y2="319.45"/>
    </g>
    <g>
      <polyline class="cls-27" points="378.78 317.64 378.78 315.64 380.78 315.64"/>
      <line class="cls-28" x1="384.01" y1="315.64" x2="388.86" y2="315.64"/>
      <polyline class="cls-27" points="390.48 315.64 392.48 315.64 392.48 317.64"/>
      <line class="cls-29" x1="392.48" y1="321.26" x2="392.48" y2="326.69"/>
      <polyline class="cls-27" points="392.48 328.5 392.48 330.5 390.48 330.5"/>
      <line class="cls-28" x1="387.25" y1="330.5" x2="382.4" y2="330.5"/>
      <polyline class="cls-27" points="380.78 330.5 378.78 330.5 378.78 328.5"/>
      <line class="cls-29" x1="378.78" y1="324.88" x2="378.78" y2="319.45"/>
    </g>
    <g>
      <polyline class="cls-27" points="310.27 332.53 310.27 330.53 312.27 330.53"/>
      <line class="cls-28" x1="315.51" y1="330.53" x2="320.36" y2="330.53"/>
      <polyline class="cls-27" points="321.98 330.53 323.98 330.53 323.98 332.53"/>
      <line class="cls-29" x1="323.98" y1="336.15" x2="323.98" y2="341.58"/>
      <polyline class="cls-27" points="323.98 343.39 323.98 345.39 321.98 345.39"/>
      <line class="cls-28" x1="318.74" y1="345.39" x2="313.89" y2="345.39"/>
      <polyline class="cls-27" points="312.27 345.39 310.27 345.39 310.27 343.39"/>
      <line class="cls-29" x1="310.27" y1="339.77" x2="310.27" y2="334.34"/>
    </g>
    <g>
      <polyline class="cls-27" points="323.98 332.53 323.98 330.53 325.98 330.53"/>
      <line class="cls-30" x1="329.21" y1="330.53" x2="334.06" y2="330.53"/>
      <polyline class="cls-27" points="335.68 330.53 337.68 330.53 337.68 332.53"/>
      <line class="cls-29" x1="337.68" y1="336.15" x2="337.68" y2="341.58"/>
      <polyline class="cls-27" points="337.68 343.39 337.68 345.39 335.68 345.39"/>
      <line class="cls-30" x1="332.44" y1="345.39" x2="327.59" y2="345.39"/>
      <polyline class="cls-27" points="325.98 345.39 323.98 345.39 323.98 343.39"/>
      <line class="cls-29" x1="323.98" y1="339.77" x2="323.98" y2="334.34"/>
    </g>
    <g>
      <polyline class="cls-27" points="337.68 332.53 337.68 330.53 339.68 330.53"/>
      <line class="cls-28" x1="342.91" y1="330.53" x2="347.76" y2="330.53"/>
      <polyline class="cls-27" points="349.38 330.53 351.38 330.53 351.38 332.53"/>
      <line class="cls-29" x1="351.38" y1="336.15" x2="351.38" y2="341.58"/>
      <polyline class="cls-27" points="351.38 343.39 351.38 345.39 349.38 345.39"/>
      <line class="cls-28" x1="346.14" y1="345.39" x2="341.29" y2="345.39"/>
      <polyline class="cls-27" points="339.68 345.39 337.68 345.39 337.68 343.39"/>
      <line class="cls-29" x1="337.68" y1="339.77" x2="337.68" y2="334.34"/>
    </g>
    <g>
      <polyline class="cls-27" points="351.38 332.53 351.38 330.53 353.38 330.53"/>
      <line class="cls-28" x1="356.61" y1="330.53" x2="361.46" y2="330.53"/>
      <polyline class="cls-27" points="363.08 330.53 365.08 330.53 365.08 332.53"/>
      <line class="cls-29" x1="365.08" y1="336.15" x2="365.08" y2="341.58"/>
      <polyline class="cls-27" points="365.08 343.39 365.08 345.39 363.08 345.39"/>
      <line class="cls-28" x1="359.84" y1="345.39" x2="354.99" y2="345.39"/>
      <polyline class="cls-27" points="353.38 345.39 351.38 345.39 351.38 343.39"/>
      <line class="cls-29" x1="351.38" y1="339.77" x2="351.38" y2="334.34"/>
    </g>
    <g>
      <polyline class="cls-27" points="365.08 332.53 365.08 330.53 367.08 330.53"/>
      <line class="cls-30" x1="370.31" y1="330.53" x2="375.16" y2="330.53"/>
      <polyline class="cls-27" points="376.78 330.53 378.78 330.53 378.78 332.53"/>
      <line class="cls-29" x1="378.78" y1="336.15" x2="378.78" y2="341.58"/>
      <polyline class="cls-27" points="378.78 343.39 378.78 345.39 376.78 345.39"/>
      <line class="cls-30" x1="373.55" y1="345.39" x2="368.69" y2="345.39"/>
      <polyline class="cls-27" points="367.08 345.39 365.08 345.39 365.08 343.39"/>
      <line class="cls-29" x1="365.08" y1="339.77" x2="365.08" y2="334.34"/>
    </g>
    <g>
      <polyline class="cls-27" points="378.78 332.53 378.78 330.53 380.78 330.53"/>
      <line class="cls-28" x1="384.01" y1="330.53" x2="388.86" y2="330.53"/>
      <polyline class="cls-27" points="390.48 330.53 392.48 330.53 392.48 332.53"/>
      <line class="cls-29" x1="392.48" y1="336.15" x2="392.48" y2="341.58"/>
      <polyline class="cls-27" points="392.48 343.39 392.48 345.39 390.48 345.39"/>
      <line class="cls-28" x1="387.25" y1="345.39" x2="382.4" y2="345.39"/>
      <polyline class="cls-27" points="380.78 345.39 378.78 345.39 378.78 343.39"/>
      <line class="cls-29" x1="378.78" y1="339.77" x2="378.78" y2="334.34"/>
    </g>
    <g>
      <polyline class="cls-27" points="310.27 347.42 310.27 345.42 312.27 345.42"/>
      <line class="cls-28" x1="315.51" y1="345.42" x2="320.36" y2="345.42"/>
      <polyline class="cls-27" points="321.98 345.42 323.98 345.42 323.98 347.42"/>
      <line class="cls-29" x1="323.98" y1="351.04" x2="323.98" y2="356.47"/>
      <polyline class="cls-27" points="323.98 358.28 323.98 360.28 321.98 360.28"/>
      <line class="cls-28" x1="318.74" y1="360.28" x2="313.89" y2="360.28"/>
      <polyline class="cls-27" points="312.27 360.28 310.27 360.28 310.27 358.28"/>
      <line class="cls-29" x1="310.27" y1="354.66" x2="310.27" y2="349.23"/>
    </g>
    <g>
      <polyline class="cls-27" points="323.98 347.42 323.98 345.42 325.98 345.42"/>
      <line class="cls-30" x1="329.21" y1="345.42" x2="334.06" y2="345.42"/>
      <polyline class="cls-27" points="335.68 345.42 337.68 345.42 337.68 347.42"/>
      <line class="cls-29" x1="337.68" y1="351.04" x2="337.68" y2="356.47"/>
      <polyline class="cls-27" points="337.68 358.28 337.68 360.28 335.68 360.28"/>
      <line class="cls-30" x1="332.44" y1="360.28" x2="327.59" y2="360.28"/>
      <polyline class="cls-27" points="325.98 360.28 323.98 360.28 323.98 358.28"/>
      <line class="cls-29" x1="323.98" y1="354.66" x2="323.98" y2="349.23"/>
    </g>
    <g>
      <polyline class="cls-27" points="337.68 347.42 337.68 345.42 339.68 345.42"/>
      <line class="cls-28" x1="342.91" y1="345.42" x2="347.76" y2="345.42"/>
      <polyline class="cls-27" points="349.38 345.42 351.38 345.42 351.38 347.42"/>
      <line class="cls-29" x1="351.38" y1="351.04" x2="351.38" y2="356.47"/>
      <polyline class="cls-27" points="351.38 358.28 351.38 360.28 349.38 360.28"/>
      <line class="cls-28" x1="346.14" y1="360.28" x2="341.29" y2="360.28"/>
      <polyline class="cls-27" points="339.68 360.28 337.68 360.28 337.68 358.28"/>
      <line class="cls-29" x1="337.68" y1="354.66" x2="337.68" y2="349.23"/>
    </g>
    <g>
      <polyline class="cls-27" points="351.38 347.42 351.38 345.42 353.38 345.42"/>
      <line class="cls-28" x1="356.61" y1="345.42" x2="361.46" y2="345.42"/>
      <polyline class="cls-27" points="363.08 345.42 365.08 345.42 365.08 347.42"/>
      <line class="cls-29" x1="365.08" y1="351.04" x2="365.08" y2="356.47"/>
      <polyline class="cls-27" points="365.08 358.28 365.08 360.28 363.08 360.28"/>
      <line class="cls-28" x1="359.84" y1="360.28" x2="354.99" y2="360.28"/>
      <polyline class="cls-27" points="353.38 360.28 351.38 360.28 351.38 358.28"/>
      <line class="cls-29" x1="351.38" y1="354.66" x2="351.38" y2="349.23"/>
    </g>
    <g>
      <polyline class="cls-27" points="365.08 347.42 365.08 345.42 367.08 345.42"/>
      <line class="cls-30" x1="370.31" y1="345.42" x2="375.16" y2="345.42"/>
      <polyline class="cls-27" points="376.78 345.42 378.78 345.42 378.78 347.42"/>
      <line class="cls-29" x1="378.78" y1="351.04" x2="378.78" y2="356.47"/>
      <polyline class="cls-27" points="378.78 358.28 378.78 360.28 376.78 360.28"/>
      <line class="cls-30" x1="373.55" y1="360.28" x2="368.69" y2="360.28"/>
      <polyline class="cls-27" points="367.08 360.28 365.08 360.28 365.08 358.28"/>
      <line class="cls-29" x1="365.08" y1="354.66" x2="365.08" y2="349.23"/>
    </g>
    <g>
      <polyline class="cls-27" points="378.78 347.42 378.78 345.42 380.78 345.42"/>
      <line class="cls-28" x1="384.01" y1="345.42" x2="388.86" y2="345.42"/>
      <polyline class="cls-27" points="390.48 345.42 392.48 345.42 392.48 347.42"/>
      <line class="cls-29" x1="392.48" y1="351.04" x2="392.48" y2="356.47"/>
      <polyline class="cls-27" points="392.48 358.28 392.48 360.28 390.48 360.28"/>
      <line class="cls-28" x1="387.25" y1="360.28" x2="382.4" y2="360.28"/>
      <polyline class="cls-27" points="380.78 360.28 378.78 360.28 378.78 358.28"/>
      <line class="cls-29" x1="378.78" y1="354.66" x2="378.78" y2="349.23"/>
    </g>
  </g>
  <g id="Layer_11" data-name="Layer 11">
    <path class="cls-2" d="M26.82,191.86l-1.42-3.6H19.48l-1.42,3.6H16L21.64,178h1.7L29,191.86Zm-4.38-11.42L20,186.64h4.84Z" transform="translate(-16.02 -7.39)"/>
    <path class="cls-2" d="M486.48,191a5.34,5.34,0,0,1-3.48.9h-4.48v-13.8h3.72a6,6,0,0,1,3.28.66,3.07,3.07,0,0,1,1.48,2.8,3.14,3.14,0,0,1-2.1,3v0c1.86.38,3.06,1.54,3.06,3.36A3.6,3.6,0,0,1,486.48,191Zm-4.24-11.36h-1.78V184h1.62a3.41,3.41,0,0,0,2.06-.42,2.06,2.06,0,0,0,.92-1.82C485.06,180,483.72,179.6,482.24,179.6ZM485,186a4.23,4.23,0,0,0-2.42-.5h-2.08v4.82h2.08a4.23,4.23,0,0,0,2.42-.48,2.14,2.14,0,0,0,1-1.94A2.08,2.08,0,0,0,485,186Z" transform="translate(-16.02 -7.39)"/>
  </g>
</svg>
